<svg xmlns="http://www.w3.org/2000/svg" width="445" height="133.87" viewBox="0 0 445 133.87"><defs><style>.cls-1{fill:#e94820;}</style></defs><g id="レイヤー_2" data-name="レイヤー 2"><g id="レイヤー_1-2" data-name="レイヤー 1"><g id="グループ_2140" data-name="グループ 2140"><g id="グループ_1762" data-name="グループ 1762"><path id="パス_835" data-name="パス 835" d="M284.62,57.27v9.88c0,2.14-.73,3.45-3.46,3.45H263v58c0,2.68-1.31,3.43-3.45,3.43H247.74c-2.13,0-3.45-.7-3.45-3.43v-58H226c-2.68,0-3.45-1.31-3.45-3.45V57.27c0-2.14.69-3.43,3.45-3.43H281.1C283.78,53.84,284.62,55.13,284.62,57.27Z"/><path id="パス_836" data-name="パス 836" d="M74.51,38.58V50.87c0,2.68-.89,4.31-4.31,4.31H23.35v17.4H64c3.4,0,4.31,1.64,4.31,4.32V88.62C68.27,91.3,67.36,93,64,93H23.35v34.8c0,3.85-.91,4.45-4.32,4.45H4.31C.88,132.07,0,130.44,0,127.76V38.58c0-2.68.88-4.31,4.31-4.31H70.2C73.62,34.27,74.51,35.9,74.51,38.58Z"/><path id="パス_837" data-name="パス 837" d="M141.89,132.07H129.52c-2.68,0-3.59-.7-4.52-3.56l-3.32-9.4H92.52l-3.32,9.4c-1,2.86-1.9,3.56-4.52,3.56H72.28c-2.68,0-2.68-1.9-2-3.32l26.4-71.24a4.76,4.76,0,0,1,4.88-3.67H113c2.68,0,3.8,1.18,4.87,3.67L144,128.75C144.56,130.17,144.56,132.07,141.89,132.07Zm-25.8-29.61-9-26.27-8.94,26.27Z"/><path id="パス_838" data-name="パス 838" d="M214.17,108.89c0,16.94-13.39,25-31.62,25-14.85,0-32-8.57-32-25.23,0-2.67.73-3.32,3.46-3.32h11.54c2.67,0,3.63,0,4.12,2.68a11.57,11.57,0,0,0,2.41,5.54c2.38,2.87,7.25,3.94,11.65,3.94,6.42,0,11.67-1.42,11.67-8s-10.71-6.77-20.7-10c-12-3.8-23.07-8.56-23.07-23.67s14-23.07,28.88-23.66c15.12,0,31.64,6.91,31.64,22.6,0,2.83-.72,3.32-3.45,3.32H197.06c-2.27,0-2.51-1.72-3.21-3.21a10.1,10.1,0,0,0-2.49-3.57,14.59,14.59,0,0,0-10.12-3.21c-3.93,0-10.46,1.55-10.46,6.91,0,7.25,17.48,9.85,22.24,11.78C201.59,89.26,214.17,92.72,214.17,108.89Z"/><path id="パス_839" data-name="パス 839" d="M352.85,132.07h-12.5c-2.68,0-3.56-.7-4.5-3.56l-3.35-9.4H303.38l-3.32,9.4c-1,2.86-1.9,3.56-4.53,3.56H283c-2.68,0-2.68-1.9-2-3.32l26.39-71.24a4.72,4.72,0,0,1,4.87-3.67h11.43c2.68,0,3.8,1.18,4.88,3.67l26.26,71.24C355.48,130.17,355.48,132.07,352.85,132.07Zm-25.94-29.61L318,76.19l-8.92,26.27Z"/><path id="パス_840" data-name="パス 840" d="M442.11,132.07H424.57a8,8,0,0,1-7.44-4.45l-16.06-23.93c-1.34-1.79-1.64-3.42-1.64-7.57V84.2c0-2.67.91-4.31,4.32-4.31h3c7.28,0,14.13-5,14.13-12,0-7.74-5.94-12.64-13.68-12.64H388v72.53c0,3.43-1.63,4.31-4.31,4.31H369c-2.68,0-4.17-.88-4.17-4.31V38.71c0-2.67.74-4.3,4.17-4.3h36.81c16.06,0,23.35,3.29,29.45,9.53a33,33,0,0,1-12,52.9l21.17,30.5C445.66,129.39,444.92,132.07,442.11,132.07Z"/><path id="パス_841" data-name="パス 841" class="cls-1" d="M222.53,29.4,210,38.5l4.79-14.7-12.53-9.1h15.47L222.52,0l4.77,14.7h15.47l-12.5,9.1L235,38.5Z"/><path id="パス_842" data-name="パス 842" class="cls-1" d="M271.54,29.4,259,38.5l4.8-14.7-12.53-9.1h15.47L271.54,0l4.8,14.7h15.44l-12.5,9.1,4.8,14.7Z"/><path id="パス_843" data-name="パス 843" class="cls-1" d="M173.51,29.4,161,38.5l4.76-14.7-12.5-9.1h15.47L173.51,0l4.76,14.7h15.47l-12.52,9.1L186,38.5Z"/></g></g></g></g></svg>